<?xml version="1.0" encoding="utf-8"?>
<!-- Generator: Adobe Illustrator 19.1.0, SVG Export Plug-In . SVG Version: 6.00 Build 0)  -->
<svg version="1.1" id="Layer_1" xmlns="http://www.w3.org/2000/svg" xmlns:xlink="http://www.w3.org/1999/xlink" x="0px" y="0px"
	 viewBox="-455 265 48 32" style="enable-background:new -455 265 48 32;" xml:space="preserve">
<path style="fill:#444444;" d="M-431,275.6c2.9,0,5.2,2.4,5.2,5.3s-2.3,5.3-5.2,5.3c-2.9,0-5.2-2.4-5.2-5.3S-433.9,275.6-431,275.6z
	 M-407.6,280c-0.4-0.6-8.7-15-23.4-15c-14.8,0-23,14.2-23.4,14.9l-0.6,1l0.6,1c0.4,0.7,8.7,15.1,23.4,15.1c14.8,0,23-14.4,23.4-15
	l0.6-1L-407.6,280z M-431,293.1c-10.5,0-17.7-9-19.9-12.2c2.1-3,9.4-12.2,19.9-12.2s17.7,9,19.9,12.2
	C-413.3,283.9-420.5,293.1-431,293.1z"/>
</svg>
